<?xml version="1.0" encoding="utf-8"?>
<!-- Generator: Adobe Illustrator 21.1.0, SVG Export Plug-In . SVG Version: 6.00 Build 0)  -->
<svg version="1.1" id="Layer_1" xmlns="http://www.w3.org/2000/svg" xmlns:xlink="http://www.w3.org/1999/xlink" x="0px" y="0px"
	 viewBox="0 0 20 20" style="enable-background:new 0 0 20 20;" xml:space="preserve">
<style type="text/css">
	.st0{fill:#FFFFFF;}
</style>
<circle cx="10" cy="10" r="9.5"/>
<g>
	<path class="st0" d="M8.5,7.8L7.6,7.9c0-0.7-0.3-1.3-1.2-1.3c-0.8,0-1.2,0.6-1.2,1.2c0,0.6,0.4,1.1,1.2,1.6l0.8,0.5
		c0.9,0.6,1.5,1.1,1.5,2c0,1.1-1.1,2-2.4,2c-1.5,0-2.3-0.9-2.3-2.1l0.9-0.1c0,0.9,0.4,1.7,1.5,1.7c0.9,0,1.4-0.6,1.4-1.3
		c0-0.7-0.4-1.1-1.3-1.7L5.6,9.8C4.9,9.3,4.4,8.7,4.4,7.9c0-0.9,0.8-1.8,2.1-1.8C7.7,6.1,8.5,6.9,8.5,7.8z"/>
	<path class="st0" d="M9.5,6.3h0.8l2.5,6l2.6-6H16l-3.3,7.6L9.5,6.3z"/>
</g>
</svg>
